<svg width="23" height="15" viewBox="0 0 23 15" fill="none" xmlns="http://www.w3.org/2000/svg">
<path d="M22.8342 13.335C21.8984 11.6504 19.4875 9.62606 18.4926 8.74512C18.22 8.50505 18.1915 8.08797 18.4397 7.81942C20.3379 5.77881 21.8577 3.43302 22.3805 2.01701C22.6125 1.39038 22.1344 0.729166 21.4609 0.729166H19.5058C18.8629 0.729166 18.4845 0.961099 18.3054 1.32935C16.7266 4.56421 15.3717 5.96395 14.4236 6.78182C13.8946 7.23958 13.0666 6.86117 13.0666 6.16333C13.0666 4.81852 13.0666 3.08309 13.0666 1.85018C13.0666 1.25407 12.5783 0.769856 11.974 0.769856L8.40348 0.729166C7.95386 0.729166 7.69751 1.23779 7.9681 1.59383L8.55811 2.44019C8.77987 2.73519 8.8999 3.09123 8.8999 3.45744L8.89584 7.26807C8.89584 7.93131 8.09221 8.2548 7.6141 7.79093C6.00073 6.21826 4.60099 3.00985 4.09644 1.4738C3.94995 1.03027 3.53491 0.731201 3.06291 0.729166L1.13623 0.725098C0.413983 0.725098 -0.112954 1.40869 0.0823584 2.09839C1.84221 8.27515 5.45142 14.1488 11.8845 14.7856C12.5193 14.8486 13.0666 14.338 13.0666 13.7073V11.7033C13.0666 11.1296 13.5162 10.6352 14.096 10.6209C14.1164 10.6209 14.1367 10.6209 14.1571 10.6209C15.8579 10.6209 17.7642 13.0969 18.4316 14.2546C18.6228 14.5882 18.9809 14.7917 19.3674 14.7917H21.9574C22.7142 14.7917 23.1984 13.9901 22.8342 13.335Z" fill="white"/>
</svg>
